<svg xmlns="http://www.w3.org/2000/svg" width="24" height="25" viewBox="0 0 24 25" fill="none" id="svg-155510703_3161">
<g clip-path="url(#svg-155510703_3161_clip0_343_160)">
<path d="M17.734 8.00384C15.9157 7.62266 14.4945 6.20144 14.1134 4.3831C14.0906 4.27478 14.0313 4.17759 13.9454 4.10783C13.8595 4.03807 13.7522 4 13.6415 4C13.5309 4 13.4236 4.03808 13.3377 4.10785C13.2517 4.17761 13.1925 4.27481 13.1697 4.38312C12.7886 6.20144 11.3674 7.62263 9.54906 8.00375C9.44076 8.02648 9.34358 8.08578 9.27383 8.17169C9.20408 8.2576 9.16602 8.36489 9.16602 8.47555C9.16602 8.5862 9.20408 8.69349 9.27383 8.7794C9.34358 8.86531 9.44076 8.92461 9.54906 8.94734C11.3673 9.32852 12.7885 10.7497 13.1697 12.568C13.1924 12.6763 13.2516 12.7736 13.3376 12.8433C13.4235 12.9131 13.5308 12.9512 13.6414 12.9512C13.7521 12.9512 13.8594 12.9131 13.9453 12.8433C14.0313 12.7736 14.0905 12.6763 14.1132 12.568C14.4944 10.7497 15.9157 9.32853 17.734 8.94743C17.8423 8.92473 17.9395 8.86544 18.0093 8.77953C18.0791 8.69362 18.1172 8.58632 18.1172 8.47565C18.1172 8.36497 18.0791 8.25767 18.0093 8.17175C17.9395 8.08584 17.8423 8.02655 17.734 8.00384ZM16.9371 15.9673C16.0804 15.7877 15.4108 15.1181 15.2312 14.2614C15.2085 14.153 15.1492 14.0558 15.0633 13.9861C14.9774 13.9163 14.8701 13.8782 14.7594 13.8782C14.6488 13.8782 14.5414 13.9163 14.4555 13.986C14.3696 14.0558 14.3103 14.153 14.2876 14.2613C14.108 15.1181 13.4384 15.7877 12.5817 15.9673C12.4734 15.99 12.3762 16.0493 12.3064 16.1352C12.2367 16.2211 12.1986 16.3284 12.1986 16.4391C12.1986 16.5497 12.2367 16.657 12.3064 16.7429C12.3762 16.8288 12.4734 16.8881 12.5817 16.9108C13.4383 17.0904 14.108 17.7601 14.2876 18.6168C14.3103 18.7251 14.3696 18.8223 14.4555 18.8921C14.5414 18.9619 14.6487 19 14.7594 19C14.87 19 14.9773 18.9619 15.0632 18.8921C15.1492 18.8223 15.2084 18.7251 15.2312 18.6168C15.4108 17.7601 16.0804 17.0905 16.9371 16.9109C17.0454 16.8881 17.1426 16.8288 17.2124 16.7429C17.2821 16.657 17.3202 16.5497 17.3202 16.4391C17.3202 16.3284 17.2821 16.2211 17.2124 16.1352C17.1426 16.0493 17.0454 15.99 16.9371 15.9673ZM23.45 11.5039C22.292 11.2612 21.3869 10.3561 21.1442 9.19812C21.1215 9.0898 21.0622 8.99259 20.9763 8.92282C20.8904 8.85305 20.7831 8.81496 20.6724 8.81496C20.5617 8.81495 20.4544 8.85303 20.3685 8.9228C20.2826 8.99257 20.2233 9.08978 20.2006 9.1981C19.9579 10.3561 19.0528 11.2612 17.8948 11.5039C17.7865 11.5266 17.6893 11.5859 17.6196 11.6718C17.5498 11.7577 17.5118 11.865 17.5118 11.9757C17.5118 12.0863 17.5498 12.1936 17.6196 12.2795C17.6893 12.3654 17.7865 12.4247 17.8948 12.4475C19.0528 12.6902 19.9578 13.5953 20.2006 14.7533C20.2233 14.8616 20.2825 14.9588 20.3685 15.0286C20.4544 15.0984 20.5617 15.1364 20.6723 15.1364C20.783 15.1364 20.8903 15.0984 20.9762 15.0286C21.0622 14.9588 21.1214 14.8616 21.1441 14.7533C21.3869 13.5953 22.292 12.6902 23.45 12.4475C23.5583 12.4248 23.6555 12.3655 23.7253 12.2796C23.795 12.1937 23.8331 12.0864 23.8331 11.9757C23.8331 11.8651 23.795 11.7578 23.7253 11.6719C23.6555 11.5859 23.5583 11.5266 23.45 11.5039Z" fill="#8C8A8A"></path>
</g>
<defs>
<clipPath id="svg-155510703_3161_clip0_343_160">
<rect width="15" height="15" fill="white" transform="translate(9 4)"></rect>
</clipPath>
</defs>
</svg>