<svg xmlns="http://www.w3.org/2000/svg" width="23" height="25" viewBox="0 0 23 25" fill="none" id="svg1027549267_3160">
<g clip-path="url(#svg1027549267_3160_clip0_343_178)">
<path d="M12.735 9.00384C10.9167 8.62266 9.49546 7.20144 9.11434 5.3831C9.09162 5.27478 9.03232 5.17759 8.9464 5.10783C8.86049 5.03807 8.75319 5 8.64252 5C8.53185 5 8.42455 5.03808 8.33864 5.10785C8.25272 5.17761 8.19343 5.27481 8.17072 5.38312C7.78956 7.20144 6.36834 8.62263 4.55003 9.00375C4.44174 9.02648 4.34456 9.08578 4.27481 9.17169C4.20506 9.2576 4.16699 9.36489 4.16699 9.47555C4.16699 9.5862 4.20506 9.69349 4.27481 9.7794C4.34456 9.86531 4.44174 9.92461 4.55003 9.94734C6.36831 10.3285 7.78948 11.7497 8.17063 13.568C8.19333 13.6763 8.25262 13.7736 8.33853 13.8433C8.42445 13.9131 8.53175 13.9512 8.64243 13.9512C8.7531 13.9512 8.8604 13.9131 8.94632 13.8433C9.03223 13.7736 9.09152 13.6763 9.11422 13.568C9.4954 11.7497 10.9167 10.3285 12.735 9.94743C12.8433 9.92473 12.9405 9.86544 13.0103 9.77953C13.08 9.69362 13.1181 9.58632 13.1181 9.47565C13.1181 9.36497 13.0801 9.25767 13.0103 9.17175C12.9405 9.08584 12.8433 9.02655 12.735 9.00384ZM11.9381 16.9673C11.0814 16.7877 10.4118 16.1181 10.2322 15.2614C10.2095 15.153 10.1502 15.0558 10.0643 14.9861C9.97838 14.9163 9.87108 14.8782 9.76041 14.8782C9.64973 14.8782 9.54243 14.9163 9.45651 14.986C9.3706 15.0558 9.31131 15.153 9.2886 15.2613C9.10898 16.1181 8.43934 16.7877 7.58264 16.9673C7.47434 16.99 7.37716 17.0493 7.30742 17.1352C7.23767 17.2211 7.1996 17.3284 7.1996 17.4391C7.1996 17.5497 7.23767 17.657 7.30742 17.7429C7.37716 17.8288 7.47434 17.8881 7.58264 17.9108C8.43931 18.0904 9.10895 18.7601 9.28854 19.6168C9.31124 19.7251 9.37053 19.8223 9.45644 19.8921C9.54236 19.9619 9.64966 20 9.76033 20C9.87101 20 9.97831 19.9619 10.0642 19.8921C10.1501 19.8223 10.2094 19.7251 10.2321 19.6168C10.4118 18.7601 11.0814 18.0905 11.9381 17.9109C12.0464 17.8881 12.1436 17.8288 12.2133 17.7429C12.2831 17.657 12.3212 17.5497 12.3212 17.4391C12.3212 17.3284 12.2831 17.2211 12.2133 17.1352C12.1436 17.0493 12.0464 16.99 11.9381 16.9673ZM18.451 12.5039C17.293 12.2612 16.3879 11.3561 16.1452 10.1981C16.1225 10.0898 16.0632 9.99259 15.9773 9.92282C15.8914 9.85305 15.7841 9.81496 15.6734 9.81496C15.5627 9.81495 15.4554 9.85303 15.3695 9.9228C15.2836 9.99257 15.2243 10.0898 15.2016 10.1981C14.9588 11.3561 14.0538 12.2612 12.8958 12.5039C12.7875 12.5266 12.6903 12.5859 12.6206 12.6718C12.5508 12.7577 12.5127 12.865 12.5127 12.9757C12.5127 13.0863 12.5508 13.1936 12.6206 13.2795C12.6903 13.3654 12.7875 13.4247 12.8958 13.4475C14.0537 13.6902 14.9588 14.5953 15.2015 15.7533C15.2242 15.8616 15.2835 15.9588 15.3694 16.0286C15.4553 16.0984 15.5626 16.1364 15.6733 16.1364C15.784 16.1364 15.8913 16.0984 15.9772 16.0286C16.0631 15.9588 16.1224 15.8616 16.1451 15.7533C16.3879 14.5953 17.293 13.6902 18.4509 13.4475C18.5593 13.4248 18.6565 13.3655 18.7262 13.2796C18.796 13.1937 18.8341 13.0864 18.8341 12.9757C18.8341 12.8651 18.796 12.7578 18.7263 12.6719C18.6565 12.5859 18.5593 12.5266 18.451 12.5039Z" fill="#8C8A8A"></path>
</g>
<defs>
<clipPath id="svg1027549267_3160_clip0_343_178">
<rect width="15" height="15" fill="white" transform="translate(4 5)"></rect>
</clipPath>
</defs>
</svg>